<?xml version="1.0" encoding="UTF-8"?>
<svg width="8px" height="18px" viewBox="0 0 8 18" version="1.1" xmlns="http://www.w3.org/2000/svg" xmlns:xlink="http://www.w3.org/1999/xlink">
    <!-- Generator: Sketch 51.2 (57519) - http://www.bohemiancoding.com/sketch -->
    <title>fb-icon</title>
    <desc>Created with Sketch.</desc>
    <defs></defs>
    <g id="sketch" stroke="none" stroke-width="1" fill="none" fill-rule="evenodd">
        <g id="index-desktop-5" transform="translate(-836.000000, -100.000000)" fill="#102EB0" fill-rule="nonzero">
            <g id="header" transform="translate(350.000000, 86.000000)">
                <g id="social" transform="translate(446.000000, 14.000000)">
                    <path d="M41.7291577,3.4860269 C41.7291577,3.93963433 41.7291577,5.96427442 41.7291577,5.96427442 L40,5.96427442 L40,8.99468511 L41.7291577,8.99468511 L41.7291577,18 L45.2812148,18 L45.2812148,8.9949362 L47.66481,8.9949362 C47.66481,8.9949362 47.8880442,7.54187746 47.9962535,5.95310059 C47.6860135,5.95310059 45.2946463,5.95310059 45.2946463,5.95310059 C45.2946463,5.95310059 45.2946463,4.19010397 45.2946463,3.88108679 C45.2946463,3.57140001 45.6819282,3.15482944 46.0647064,3.15482944 C46.4467672,3.15482944 47.2531362,3.15482944 48,3.15482944 C48,2.74223458 48,1.31662916 48,0 C47.0029593,0 45.8686542,0 45.3686591,0 C41.6413547,-0.000209247824 41.7291577,3.0332146 41.7291577,3.4860269 Z" id="fb-icon"></path>
                </g>
            </g>
        </g>
    </g>
</svg>