<svg width="16" height="16" viewBox="0 0 16 16" xmlns="http://www.w3.org/2000/svg"><title>26ED43F2-65ED-448E-9D52-BE1A92924A1C</title><path d="M15.578 2.756c.236.63.363 1.295.373 1.967C16 5.57 16 5.847 16 8.013c0 2.167-.01 2.438-.049 3.291a5.854 5.854 0 0 1-.373 1.94 4.089 4.089 0 0 1-2.338 2.335 5.882 5.882 0 0 1-1.944.372C10.446 16 10.171 16 8 16c-2.17 0-2.441-.01-3.296-.049a5.881 5.881 0 0 1-1.944-.4 4.089 4.089 0 0 1-2.338-2.334 5.854 5.854 0 0 1-.373-1.94C0 10.43 0 10.153 0 7.987 0 5.82.01 5.548.049 4.695c.013-.663.14-1.32.373-1.94A4.089 4.089 0 0 1 2.76.42 5.882 5.882 0 0 1 4.704.05C5.554 0 5.829 0 8 0c2.17 0 2.441.01 3.296.049.665.013 1.322.14 1.944.372a4.089 4.089 0 0 1 2.338 2.335zm-7.583 7.89a2.666 2.666 0 0 0 2.668-2.665 2.666 2.666 0 0 0-2.668-2.664 2.666 2.666 0 0 0-2.669 2.664 2.666 2.666 0 0 0 2.669 2.664zm4.27-5.961a.957.957 0 1 0 .002-1.915.957.957 0 0 0-.002 1.915z" fill="#102EB0" fill-rule="nonzero"/></svg>