<svg width="160" height="34" viewBox="0 0 160 34" xmlns="http://www.w3.org/2000/svg"><title>logo</title><path d="M82.91 7.723c.113.07-.282.983-.611 2.444-.542 2.419-1.613 5.828-2.214 11.966-.553 5.668-.256 7.174-.58 7.13-1.57-.217-2.215-4.636-2.114-9.537.087-4.24.788-8.247 2.613-10.843 1.082-1.542 2.719-1.279 2.906-1.16zm14.027.426c.341.079-.6 3.432-.064 9.25.52 5.645 3.246 10.002 2.706 10.098-1.561.271-4.254-.115-5.21-4.915-.839-4.222-.31-9.508.811-12.298.277-.686.697-1.377.934-1.635-.93.27-2.696 1.122-3.44 4.967-.955 4.93-.625 6.832-1.547 9.052-1.123 2.706-2.577 2.552-3.424 2.382-.63-.128-1.245-.543-1.622-.924.146.45.302.86.472 1.2.75 1.496 1.623 1.668 1.789 1.967.168.298-.665.772-1.872.772-1.206 0-2.87-.754-3.688-3.574-.397-1.354-.593-4.244-.924-5.677-.247-1.085-.806-1.554-.654-1.774.083-.121.374-.224.598-.405.88-.7 1.165-1.891 1.783-3.142.685-1.394 1.212-2.294 2.218-2.811 1.415-.725 2.81-.37 3.067.39.085.255-1.34-.094-1.733.775-.477 1.06-1.033 1.836-2.316 2.789-.868.649-1.744 1.3-2.364 1.739.508-.204 1.023-.339 1.229-.322.359.035.756.391 1.262 3.1.221 1.174.518 2.801.906 4.207.31-.144 1.034-.057 1.714-.673 1.15-1.048 2.009-2.182 2.868-6.71.885-4.677 3.724-8.457 6.5-7.828zm52.593 17.178c.748 1.495 1.622 1.667 1.788 1.966.168.298-.665.772-1.872.772s-2.869-.754-3.69-3.573c-.393-1.355-.592-4.245-.92-5.678-.25-1.086-.808-1.554-.656-1.774.086-.121.373-.224.599-.404.877-.7 1.166-1.893 1.782-3.143.684-1.395 1.21-2.294 2.218-2.811 1.416-.725 2.81-.371 3.065.39.086.254-1.341-.094-1.731.775-.477 1.06-1.032 1.836-2.315 2.789-.87.649-1.744 1.3-2.366 1.739.507-.204 1.023-.34 1.23-.322.358.034.757.392 1.264 3.1.337 1.804.855 4.676 1.604 6.174zm-3.644-17.604c.112.07-.283.983-.61 2.444-.543 2.419-1.614 5.828-2.216 11.966-.554 5.668-.255 7.174-.582 7.13-1.57-.217-2.214-4.636-2.115-9.537.089-4.24.79-8.247 2.615-10.843 1.084-1.542 2.719-1.279 2.908-1.16zm-40.063 2.051c1.132-.033 2.322.602 2.66 4.009.43 4.27.005 7.813-.29 9.494-.3 1.706-.297 2.407-.57 2.433-.498.044-1.869-1.641-2.222-5.765-.243-2.86-.092-5.292-.092-5.292s-1.531 1.824-2.223 4.281c-.693 2.457-.149 4.179.324 4.24.667.085 1.376-1.62 1.574-1.524.202.097-.153 1.76-.898 2.75-.89 1.178-2.047 1.927-3.266 1.453-1.74-.678-1.589-4.126-.452-6.292 1.261-2.41 4.768-5.517 5-5.854.14-.199.509-3.221.076-3.319-1.095-.246-.85 2.07-1.164 2.554-.315.486-1.928 1.619-2.483 1.262-.29-.185-.347-1.648.564-2.651.913-1.004 2.108-1.74 3.462-1.779zm53.806 4.009c.428 4.27.006 7.813-.292 9.494-.3 1.706-.295 2.407-.568 2.433-.5.045-1.87-1.642-2.222-5.764-.248-2.86-.092-5.293-.092-5.293s-1.533 1.824-2.225 4.281c-.691 2.457-.148 4.179.326 4.24.664.085 1.374-1.62 1.574-1.524.2.097-.154 1.76-.9 2.75-.89 1.178-2.046 1.927-3.264 1.453-1.74-.678-1.586-4.126-.45-6.292 1.259-2.41 4.764-5.517 4.998-5.854.139-.199.508-3.221.075-3.319-1.096-.246-.849 2.07-1.163 2.554-.314.486-1.93 1.619-2.485 1.262-.29-.185-.347-1.648.566-2.651.912-1.004 2.106-1.74 3.46-1.779 1.133-.033 2.322.601 2.662 4.009zm-20.785-2.214c.42.036-.334.152-.869 2.873-.591 3.013-.655 5.737-.43 8.023.279 2.836 1.299 3.913.955 4.091-.398.204-3.15-1.21-3.645-4.25-.21.623-.781 1.593-1.27 2.14-.98 1.103-2.196 1.762-3.369 1.177-2.191-1.09-2.715-4.835-1.84-9.051.995-4.793 3.597-8.296 5.124-7.866.275.077-.88 1.065-1.705 6.695-.452 3.096-.206 7.649 1.216 7.769.67.055 1.584-1.716 1.573-2.4-.01-.686-.21-3.302.332-5.674.463-2.02 1.42-3.739 3.928-3.527zm-102.624 0c.42.036-.334.152-.87 2.873-.593 3.013-.654 5.737-.43 8.023.278 2.836 1.298 3.913.955 4.091-.399.204-3.151-1.21-3.643-4.25-.212.623-.783 1.593-1.27 2.14-.983 1.103-2.198 1.762-3.372 1.177-2.19-1.09-2.714-4.835-1.84-9.051.997-4.793 3.597-8.296 5.126-7.866.274.077-.88 1.065-1.705 6.695-.454 3.096-.206 7.649 1.215 7.769.669.055 1.585-1.716 1.573-2.4-.01-.686-.21-3.302.331-5.674.464-2.02 1.42-3.739 3.93-3.527zM68.1 9.409c.01.5.036 2.416.207 8.329.165 5.676.342 9.073-.206 9.114-1.587.117-3.005-3.998-3.256-8.871-.113-2.204.117-4.29.595-5.984.16-.568.436-1.409.37-1.555-.177-.395-2.605-1.008-3.084.03-.838 1.819 1.023 3.693 1.532 4.1.438.347-.698 3.62-1.6 7.14-.727 2.832-3.027 4.267-4.843 4.267-.73 0-1.336-.123-1.656-.277-.556-.138-1.802-1.855-2.134-5.757-.245-2.86-.092-5.292-.092-5.292s-1.532 1.824-2.224 4.281c-.692 2.457-.149 4.179.325 4.24.666.085 1.375-1.62 1.574-1.524.2.097-.154 1.76-.9 2.75-.89 1.178-2.045 1.927-3.265 1.453-1.738-.678-1.585-4.126-.452-6.292 1.263-2.41 4.768-5.517 5.001-5.854.14-.199.508-3.221.077-3.319-1.097-.246-.85 2.07-1.165 2.554-.313.486-1.929 1.619-2.486 1.262-.288-.185-.344-1.648.567-2.652.913-1.003 2.106-1.74 3.46-1.778 1.132-.033 2.32.601 2.664 4.009.426 4.27.004 7.813-.294 9.494-.133.76-.206 1.318-.27 1.707a5.368 5.368 0 0 0 1.71-1.534c1.006-1.383 2.066-4.79 2.485-6.485.712-2.881 2.36-2.417 2.36-2.417s-2.571-1.107-2.838-2.696c-.262-1.589.479-2.867 2.056-3.06 1.563-.19 3.729.86 3.943.86.18 0 .485-.209.702-.366.19-.144.483-.292.702-.342.322-.075.424-.07.435.466zM18.907.677c.327-.462 1.47-1.635.797.9-.613 2.304-1.558 7.183-2.975 16.884-1.36 9.313-2.09 14.92-2.703 14.752-1.783-.494-2.23-7.801-1.183-15.845.921-7.074 4.292-14.205 6.064-16.691zm4.05 27.99c.84 2.035 2.427 2.295 2.616 2.705.188.405-.827.698-2.274.74-2.222.06-4.058-2.356-4.935-6.163-.717-3.107-.868-9.5-.592-9.864.113-.149.55-.337.69-.424.88-.542 1.2-1.492 1.744-2.857.385-.964.69-2.11 1.3-3.34.81-1.63 2.352-2.591 3.715-2.148.877.283 1.484 1.287 1.225 2.652-.327 1.72-2.358 1.909-2.563 1.781-.204-.125.166-.428.17-1.279.009-1.109-.47-1.614-1.065-1.718-.753-.131.006 2.092-.903 4.003-.586 1.228-1.91 2.144-2.809 2.647a7.373 7.373 0 0 1 1.123-.184s1.355-.186 1.45 4c.056 2.463.266 7.416 1.107 9.45zM12.452 15.672c.102.166.09.23.05.292-.078.12-1.3.495-1.65 2.276-.386 1.971-.249 5.439-2.119 9.807-1.967 4.59-5.351 3.935-6.475 3.296C.244 30.195-.31 27.078.154 27.058c.467-.023.28.378 1.173.886.892.507 2.523.184 3.923-1.947 1.293-1.972 1.49-4.515 2.701-7.3.805-1.853 2.557-2.824 3.676-2.97-.511-.261-1.613-.938-2.38-2.152-.755-1.189-1.495-3.046-1.845-4.395-.287-1.106-1.243-.59-1.18-.913.188-.968 3.194-1.572 4.232-.647.74.656.451 2.063.714 4.274.196 1.642.735 2.877 1.285 3.777zM46.31 9.02c-.986 1.845-3.74 4.153-3.937 3.731-.064-.132 3.512-5.53 2.734-7.358-.454-1.065-1.462-1.321-2.461 2.598-.86 3.365-1.417 7.798-1.685 12.033-.282 4.441-.04 6.309 1.245 5.952 1.33-.369 2.366-2.495 2.065-5.885-.201-2.252-1.284-3.823-2.397-5.05-.167-.185 2.117-1.524 3.017-1.201.902.323 2.378 2.49 2.255 5.913-.126 3.506-2.875 6.554-5.24 7.281-1.716.532-2.52.023-3.211-.963-.935-1.268-1.322-3.807-.887-8.238.42-4.29 1.516-7.195 2.977-10.035 1.503-2.923 2.982-4.178 4.762-3.972 1.573.18 2.323 2.276.763 5.194zm81.162 12.155c.341.252-.122 1.066-.864 1.88-1.437 1.577-3.462 3.022-5.705 2.639-1.426-.245-2.238-1.593-2.5-3.442-1.41 1.44-3.302 2.662-5.383 2.303-2.47-.422-3.1-4.15-2.225-8.06.879-3.926 2.92-6.384 4.7-7.468.78-.48 1.332-.476 1.673-.48 1.316-.006 2.369 1.187 2.038 2.73-.227 1.057-1.787 1.639-1.908 1.456-.118-.183.01-1.093.084-1.62.127-.902-.138-1.706-.66-1.723-.617-.02-.909.359-1.44 1.672-.533 1.31-.953 4.345-1.021 5.497-.244 4.085.688 5.847 1.289 5.847 1.023 0 2.01-.748 2.758-1.409-.014-1.05.112-2.197.373-3.364.877-3.927 2.919-6.383 4.698-7.468.78-.477 1.333-.474 1.673-.477 1.316-.009 2.37 1.186 2.037 2.728-.226 1.056-1.786 1.636-1.904 1.454-.118-.18.007-1.093.08-1.62.128-.9-.135-1.703-.658-1.72-.617-.021-.908.356-1.44 1.667-.533 1.313-.952 4.349-1.021 5.5-.244 4.086.688 5.847 1.29 5.847 1.91 0 3.697-2.621 4.036-2.369z" fill="#0D2CAF" fill-rule="evenodd"/></svg>