<svg width="19" height="14" viewBox="0 0 19 14" xmlns="http://www.w3.org/2000/svg"><title>660D2C56-1BE4-43BD-9F00-835CCC09B524</title><path d="M18.672 2.252c-.233-1.068-1.06-1.856-2.054-1.974C14.262 0 11.877-.002 9.503 0 7.129 0 4.743 0 2.388.278 1.393.396.568 1.184.335 2.252.004 3.773 0 5.434 0 7c0 1.566 0 3.227.331 4.748.232 1.068 1.058 1.856 2.053 1.974C4.74 14 7.125 14.002 9.5 14c2.375.001 4.76 0 7.115-.278.994-.118 1.821-.906 2.054-1.974C18.998 10.226 19 8.566 19 7c0-1.566.003-3.227-.328-4.748zM7.048 10.118V3.475l6.04 3.332-6.04 3.31z" fill="#102EB0" fill-rule="nonzero"/></svg>