<?xml version="1.0" encoding="UTF-8"?>
<svg width="19px" height="16px" viewBox="0 0 19 16" version="1.1" xmlns="http://www.w3.org/2000/svg" xmlns:xlink="http://www.w3.org/1999/xlink">
    <!-- Generator: Sketch 51.2 (57519) - http://www.bohemiancoding.com/sketch -->
    <title>Shape</title>
    <desc>Created with Sketch.</desc>
    <defs></defs>
    <g id="sketch" stroke="none" stroke-width="1" fill="none" fill-rule="evenodd">
        <g id="index-desktop-5" transform="translate(-899.000000, -101.000000)" fill="#102EB0" fill-rule="nonzero">
            <g id="header" transform="translate(350.000000, 86.000000)">
                <g id="social" transform="translate(446.000000, 14.000000)">
                    <path d="M122,2.89305176 C121.300693,3.21429477 120.550347,3.43215809 119.76197,3.52942253 C120.566957,3.02967901 121.183154,2.23701568 121.475202,1.29539808 C120.720106,1.75819271 119.886619,2.09424102 118.998523,2.27641068 C118.287357,1.48989477 117.275791,1 116.153796,1 C114.001266,1 112.255964,2.80936959 112.255964,5.03969271 C112.255964,5.35601134 112.290394,5.6649595 112.356894,5.96038977 C109.11801,5.79173799 106.245994,4.18301252 104.323793,1.73849521 C103.987784,2.33424794 103.796635,3.02842378 103.796635,3.76942945 C103.796635,5.17139558 104.485262,6.40841127 105.530078,7.13213335 C104.89131,7.10998976 104.290543,6.9278201 103.764596,6.62501936 L103.764596,6.67548615 C103.764596,8.63255478 105.1086,10.2659021 106.890691,10.6376441 C106.564182,10.7287289 106.219884,10.7791957 105.863696,10.7791957 C105.612008,10.7791957 105.368608,10.7533508 105.129959,10.7041071 C105.626227,12.3103864 107.06523,13.4784609 108.770173,13.5104854 C107.436849,14.5936546 105.755656,15.2373959 103.929636,15.2373959 C103.615017,15.2373959 103.305118,15.2176984 103,15.1820047 C104.725122,16.3304138 106.773183,17 108.974392,17 C116.144358,17 120.06358,10.8432126 120.06358,5.50374256 L120.05051,4.9806324 C120.816286,4.41439374 121.478772,3.70296649 122,2.89305176 Z" id="Shape"></path>
                </g>
            </g>
        </g>
    </g>
</svg>