<?xml version="1.0" encoding="UTF-8"?>
<svg width="20px" height="14px" viewBox="0 0 20 14" version="1.1" xmlns="http://www.w3.org/2000/svg" xmlns:xlink="http://www.w3.org/1999/xlink">
    <!-- Generator: Sketch 51.2 (57519) - http://www.bohemiancoding.com/sketch -->
    <title>vk-icon</title>
    <desc>Created with Sketch.</desc>
    <defs></defs>
    <g id="sketch" stroke="none" stroke-width="1" fill="none" fill-rule="evenodd">
        <g id="index-desktop-5" transform="translate(-796.000000, -102.000000)" fill="#102EB0" fill-rule="nonzero">
            <g id="header" transform="translate(350.000000, 86.000000)">
                <g id="social" transform="translate(446.000000, 14.000000)">
                    <path d="M19.8939306,14.6435366 C19.8697129,14.5795022 19.8471365,14.5263863 19.8261648,14.483831 C19.479166,13.7170736 18.8160605,12.7759332 17.8372495,11.6601413 L17.8165697,11.6345902 L17.8062115,11.6220607 L17.7957439,11.6092181 L17.7852398,11.6092181 C17.3410055,11.0896488 17.0596935,10.740301 16.9418875,10.5614431 C16.7263354,10.2207317 16.6780459,9.87585869 16.7958519,9.52642139 C16.879082,9.26240807 17.1917238,8.70484772 17.7330478,7.85297963 C18.0177881,7.40151684 18.2432973,7.03968434 18.4098304,6.76707939 C19.6109045,4.80801101 20.1316215,3.55614036 19.9718722,3.01097521 L19.9098326,2.8835776 C19.8681446,2.80687949 19.7605509,2.73671459 19.5871974,2.67272492 C19.4134427,2.60886949 19.1913619,2.59830896 18.9205541,2.64086433 L15.9216439,2.6662812 C15.8730626,2.64516014 15.803692,2.64712905 15.7133133,2.67272492 C15.623044,2.69832079 15.5778911,2.71116347 15.5778911,2.71116347 L15.525699,2.7431583 L15.4842663,2.78159686 C15.4495446,2.80701373 15.4113579,2.85171701 15.3696699,2.91561718 C15.3282008,2.97929361 15.2935155,3.05402281 15.2657964,3.1391783 C14.9392951,4.16976998 14.5680786,5.12795936 14.1514539,6.0137017 C13.8945784,6.5418626 13.6586747,6.99959011 13.443232,7.38715273 C13.228081,7.7745811 13.0475789,8.06002873 12.901908,8.24300339 C12.7560182,8.42615704 12.6243527,8.5728858 12.506109,8.68372665 C12.3880477,8.79461225 12.2979243,8.84146343 12.2355199,8.82432494 C12.1729697,8.80718644 12.1140667,8.7901822 12.0583003,8.77317795 C11.9611742,8.69647984 11.8830502,8.5921722 11.8241473,8.46016554 C11.764989,8.32815887 11.725161,8.16200947 11.7043353,7.96185157 C11.6836189,7.76155942 11.6713642,7.58927954 11.6678628,7.4444302 C11.6646168,7.29975984 11.6661122,7.09512714 11.6731513,6.83111381 C11.6803729,6.56696624 11.6836189,6.38824264 11.6836189,6.29454029 C11.6836189,5.9708331 11.6887615,5.61951638 11.6990832,5.24050064 C11.7095873,4.8614849 11.7180854,4.56118092 11.7251975,4.33994671 C11.7322732,4.11848875 11.7355557,3.88418811 11.7355557,3.63717903 C11.7355557,3.39016995 11.7233009,3.19645576 11.6990832,3.05585748 C11.6751573,2.91543819 11.6384296,2.77913571 11.5900306,2.64699481 C11.5413399,2.51498814 11.4700728,2.41287316 11.3765574,2.34038136 C11.2828597,2.26797906 11.1663667,2.2105226 11.027735,2.16783299 C10.6597645,2.06567326 10.191203,2.01040945 9.62183172,2.00181783 C8.33067075,1.98481358 7.50103209,2.08710756 7.13309808,2.30856552 C6.98731773,2.40213363 6.8553969,2.52997873 6.73744502,2.69169808 C6.61245395,2.87914754 6.59502013,2.98144152 6.68525295,2.99826678 C7.1018412,3.07483064 7.39675737,3.25798429 7.57032973,3.54754874 L7.63287997,3.70098971 C7.68153421,3.81169631 7.7301155,4.00769265 7.77873327,4.28871022 C7.82727809,4.5697278 7.85860792,4.8805923 7.8723945,5.22112475 C7.90704333,5.842988 7.90704333,6.37531047 7.8723945,6.81813689 C7.83763627,7.2611423 7.80481107,7.6060153 7.77348124,7.85302438 C7.74215141,8.10003346 7.69532079,8.30019136 7.63287997,8.45345333 C7.57032973,8.60676006 7.52871467,8.70046241 7.50785243,8.73447091 C7.48702667,8.7684794 7.46966579,8.78991371 7.4558792,8.79832634 C7.36564638,8.84074746 7.27180278,8.86236075 7.17467667,8.86236075 C7.07740466,8.86236075 6.95945278,8.80266689 6.82063866,8.68336867 C6.68186101,8.56407044 6.53783134,8.40020319 6.38854963,8.19149842 C6.23926792,7.98274889 6.07091112,7.69103654 5.88340629,7.31631661 C5.69604735,6.94159668 5.50164922,6.49872551 5.30032134,5.9877031 L5.13375169,5.61709999 C5.02962286,5.37868253 4.88738034,5.03152738 4.70687821,4.57594777 C4.52626667,4.12018917 4.36662679,3.67933166 4.22784914,3.25346474 C4.17237456,3.0746069 4.08903503,2.93843867 3.97797644,2.84473631 L3.92585731,2.80629776 C3.89120849,2.77228927 3.83558802,2.73617761 3.75928767,2.69769431 C3.6828779,2.65925576 3.60314914,2.63169098 3.51977313,2.61473148 L0.666570372,2.64014836 C0.375009661,2.64014836 0.177183129,2.72118703 0.0730178313,2.88304062 L0.0313298287,2.95960449 C0.0105040636,3.00224935 0,3.07035584 0,3.16410294 C0,3.2578053 0.0208257651,3.37280772 0.0625137677,3.50897595 C0.479029069,4.71001284 0.931980341,5.86831538 1.42136758,6.98406255 C1.91075483,8.09980972 2.33602352,8.99857373 2.69691834,9.67954912 C3.05788611,10.3610167 3.42582012,11.0041801 3.80072036,11.6087258 C4.17562061,12.2134953 4.42377911,12.601058 4.54519587,12.7713242 C4.66675853,12.9419036 4.76224338,13.0694355 4.83165044,13.154591 L5.09202721,13.4611597 C5.25863333,13.6656134 5.50329048,13.9104746 5.82610808,14.1957432 C6.14899862,14.4811908 6.50646503,14.7622084 6.89868969,15.0392434 C7.29098729,15.3158309 7.74736697,15.5415399 8.26808404,15.716102 C8.78872817,15.890843 9.29547629,15.9609632 9.78840136,15.9271336 L10.9859376,15.9271336 C11.2288076,15.9014035 11.412811,15.8077012 11.537875,15.6459818 L11.5793077,15.5819474 C11.6071727,15.5311137 11.6332505,15.4521334 11.6573223,15.3458568 C11.6816859,15.2394013 11.6937947,15.1221167 11.6937947,14.9945401 C11.6866826,14.6283671 11.7094049,14.2983504 11.7613417,14.0045349 C11.813242,13.7108089 11.8724003,13.4893509 11.9385613,13.3402058 C12.0046858,13.1911949 12.0793085,13.0654529 12.1623562,12.9635169 C12.2455863,12.8613572 12.3048905,12.7994707 12.3396852,12.7781706 C12.3742611,12.7567363 12.4018708,12.7421932 12.4226965,12.7334673 C12.5893026,12.6653609 12.7853785,12.7313194 13.0112159,12.9316563 C13.2368709,13.1318142 13.4485205,13.3789576 13.6464929,13.6726836 C13.8443559,13.9666781 14.0820833,14.2965157 14.3597115,14.6626888 C14.6375221,15.0289961 14.8804286,15.3012878 15.0886133,15.4804141 L15.296798,15.6337209 C15.4358309,15.7360148 15.6163331,15.8297172 15.8385232,15.9148727 C16.0603121,15.9999834 16.2546373,16.0212835 16.4214987,15.9787281 L19.0871602,15.9277154 C19.3508195,15.9277154 19.555977,15.874152 19.701502,15.7678754 C19.8473188,15.6614199 19.9339409,15.5441353 19.9618788,15.4165587 C19.9897437,15.2888479 19.9912391,15.1439538 19.9671673,14.9819659 C19.9424754,14.8203808 19.9181483,14.7073921 19.8939306,14.6435366 Z" id="vk-icon"></path>
                </g>
            </g>
        </g>
    </g>
</svg>